Patient4_TMGait_0pt5_01_left_11_EMG.mot
version=1
nRows=40
nColumns=33
inDegrees=no
endheader
time	1LAddLong	2LGlutMax	3LGlutMed	4LIliopsoas	5LSemiMemb	6LBicFemLong	7LRecFem	8LVastMed	9LVastLat	10LGasMed	11LTibAnt	12lTibPost	13LPeroneusLong	14LSol	15LExtDigLong	16LFlexDigLong	17RAddLong	18RGlutMax	19RGlutMed	20RIliopsoas	21RSemiMemb	22RBicFemLong	23RRecFem	24RVastMed	25RVastLat	26RGasMed	27RTibAnt	28RTibPost	29RPeroneusLong	30RSol	31RExtDigLong	32RFlexDigLong
16.115	0.010986	-0.02243	-0.097198	0.00885	-0.021515	-0.028381	0.014496	0.009766	0.19699	0.057831	0.34897	0.006561	0.010986	-0.083466	0.38208	0.004425	0.031433	-0.22339	-0.003204	-0.030823	-0.075073	-0.49789	-0.19501	-0.064545	0.10178	0.015259	0.1622	0.002747	-0.45593	-0.075836	-0.007172	0.008698
16.116	0.005951	-0.020905	-0.080719	0.006409	-0.001984	-0.016632	-0.001984	0.010071	0.20187	0.03479	0.18723	0.011139	0.040741	-0.082703	-0.3241	0.005493	0.017242	-0.095062	-0.48386	-0.036011	-0.16052	-0.48706	-0.047302	-0.16052	0.045929	-0.014648	0.25559	0.041656	1.1383	0.031128	-0.012512	0.007019
16.117	0.007324	-0.037384	-0.027313	-0.018311	0.000305	-0.017242	0.046997	0.010986	0.19913	0.024567	0.06073	0.006256	0.074921	-0.079651	-0.54184	0.018768	0.008392	-0.11581	-0.79086	0.022125	-0.11078	-0.34576	0.016174	-0.10773	0.027771	-0.035706	0.39734	0.011749	1.2537	-0.18845	0.002289	-0.006409
16.118	0.003204	-0.095062	-0.032806	0.003357	-0.019226	-0.032501	0.068817	0.015259	0.19119	0.033264	0.13443	-0.002441	0.058289	-0.17441	-0.48141	0.017395	0.025024	-0.20599	-0.69687	0.041046	-0.1445	-0.20569	0.049896	-0.10437	0.009766	0.006104	0.41351	-0.028381	0.9198	-0.466	-0.001221	0.001526
16.119	0.005493	-0.10666	-0.076599	0.016937	-0.034332	-0.028839	0.09613	0.005646	0.19058	-0.079956	0.071106	0.006714	0.029297	-0.13184	-0.019073	0.005188	0.041351	-0.22385	0.42175	-0.042572	-0.12177	0.011902	0.080261	-0.16602	-0.011749	-0.015259	-0.17166	-0.010223	0.49423	-0.38528	-0.009308	-0.001373
16.12	0.003815	-0.098724	-0.075836	0.001068	-0.086365	-0.046539	0.10544	0.002136	0.19592	-0.11932	0.008087	0.003967	-0.003815	0.002441	0.032349	0.005035	0.037384	-0.10346	1.1815	-0.092621	-0.18341	0.15106	0.096588	-0.22232	-0.037689	-0.003052	-0.44983	0.012665	-0.63019	-0.18616	-0.012665	-0.010986
16.121	0.012207	-0.10407	-0.099182	0.005493	-0.028534	-0.062561	0.076141	0.007324	0.19745	-0.063324	-0.005188	0.002899	-0.072327	0.032043	-0.003967	0.003967	0.028076	-0.10147	1.143	-0.1355	-0.21378	0.36285	0.24384	-0.18997	-0.04837	0.000458	-0.49027	0.001526	-0.50827	-0.054626	-0.006256	-0.015564
16.122	0.014343	-0.10895	-0.13702	0.005798	0.061188	-0.073242	0.069427	0.000305	0.18982	-0.13611	-0.015106	0.010681	-0.032196	0.009308	0.033569	0.024109	-0.018158	-0.17258	0.37918	-0.081024	-0.12573	0.69046	0.31448	-0.02121	-0.023804	-0.003967	-0.21561	-0.008545	0.76218	-0.00473	-0.006714	-0.012817
16.123	0.006409	-0.11032	-0.16464	0.006256	0.048065	-0.067139	0.05722	0.008698	0.19333	-0.24185	0.005798	0.008392	0.093994	0.010376	0.010071	0.022278	-0.028687	-0.21194	0.008392	-0.000916	0.18356	0.44144	0.3688	-0.10574	-0.061951	0.012207	-0.1889	-0.005188	1.4421	-0.037384	-0.008392	-0.011444
16.124	-0.000763	-0.10376	-0.12497	-0.000305	0.010986	-0.054779	0.067596	0.005493	0.18768	-0.16251	0.11429	0.006409	0.072174	0.074615	0.42923	0.023956	-0.02243	-0.15472	0.27802	0.045471	0.19592	0.067596	0.47867	-0.12314	-0.1712	0.017395	0.010071	-0.013275	0.071411	0.12451	-0.006866	-0.009766
16.125	0.01236	-0.12207	-0.13168	-0.01236	0.026703	-0.084381	0.032196	0.004272	0.1886	-0.060883	0.11093	0.006866	0.034485	0.088196	0.13748	0.02533	-0.030975	-0.16556	-0.016327	0.072632	0.004272	-0.10269	0.29953	-0.15045	-0.32013	-0.024414	0.20172	-0.015717	-1.3736	0.14938	-0.006409	-0.016785
16.126	0.008392	-0.13016	-0.13046	0.013885	-0.007935	-0.066071	0.01358	0.005493	0.18799	0.059967	0.24323	0.005188	-0.045166	0.075378	-0.093689	0.025177	-0.016632	-0.14572	0.15701	0.02655	-0.093842	-0.064087	-0.080109	-0.058289	-0.20721	-0.011597	0.35553	-0.019836	-0.6015	0.10895	-0.006409	-0.005188
16.127	0.015717	-0.11337	-0.12253	-0.001068	-0.020599	-0.028839	-0.016327	0.001373	0.15503	0.087585	0.031738	0.00412	0.069885	0.098877	-0.18234	0.033264	-0.024109	-0.091248	0.038452	0.042419	0.063324	-0.066223	-0.33997	0.13565	-0.004883	0.03067	0.26459	-0.029755	-0.30777	0.17944	-0.007629	-0.004883
16.128	0.008392	-0.09491	-0.13473	0.001221	-0.014038	0.004425	0.002441	0.006104	0.15335	0.077057	-0.16312	0.008392	0.15533	0.085144	-0.3009	0.017853	-0.017242	-0.06485	0.20248	-0.002899	0.10773	-0.027008	-0.28595	0.16922	0.068207	-0.009613	0.32044	-0.000916	-0.46783	0.14023	-0.003357	-0.001373
16.129	0.003204	-0.11444	-0.11383	-0.01709	0.006104	0.022583	-0.010681	0.007935	0.13947	0.082092	-0.10712	0.00473	0.13886	0.036926	-0.19028	0.016479	-0.011444	-0.059357	-0.069885	-0.11047	0.041199	-0.050049	-0.32105	0.16129	0.12909	0.008087	0.26764	0.05722	0.36407	0.000305	-0.007172	-0.002899
16.13	-0.001373	-0.10727	-0.098114	-0.00473	-0.001221	0.061951	-0.007019	0.009918	0.13641	0.07309	0.080872	0.007782	0.11902	0.029602	0.043945	0.024109	-0.007935	-0.056458	0.004425	-0.1178	-0.009918	-0.022125	-0.44037	0.31143	0.15106	0.023804	0.090485	0.000305	1.7473	0.070343	-0.007629	-0.02121
16.131	-0.006256	-0.055084	-0.075684	-0.00351	-0.01236	0.076904	-0.028992	0.011597	0.1355	0.029297	0.17761	0.011139	0.097961	0.066223	0.23804	0.024719	0.001678	-0.033417	0.093536	-0.20096	-0.017548	0.023804	-0.23102	0.33798	0.14893	0.014038	0.072784	-0.015259	-0.87555	0.10452	-0.006866	-0.010376
16.132	0.010071	-0.059662	-0.080719	0.001526	0.019226	0.041351	-0.042114	0.012207	0.12726	-0.004425	-0.014801	0.006714	0.065002	0.10498	0.50674	0.017395	0.008545	-0.056763	-0.037842	-0.083618	-0.028687	0.041199	0.11124	0.17044	0.14435	-0.000305	0.024261	-0.020142	-0.033417	-0.055389	-0.004425	0.001526
16.133	0.023041	-0.075531	-0.072174	0.019226	0.060577	-0.024414	-0.052338	0.004883	0.1265	-0.019073	-0.09201	0.009308	0.059814	0.049744	-0.3122	0.021362	0.012512	-0.10254	-0.25162	0.073547	-0.0383	0.001068	0.18478	0.027618	0.063171	-0.006714	0.006409	-0.018311	-0.19104	0.09491	-0.00824	-0.009003
16.134	0.025024	-0.060577	-0.081482	0.005188	-0.001831	-0.068359	-0.065765	0.00412	0.11963	-0.03479	-0.17319	0.005493	0.084991	-0.06485	-0.32822	0.010223	0.016632	-0.056763	-0.010681	0.11658	-0.021667	-0.055542	0.096588	0.11505	0.055695	-0.0177	0.13214	-0.020294	-1.7674	0.20447	-0.007019	-0.018463
16.135	0.029144	-0.032501	-0.085449	-0.007935	-0.017548	-0.015411	-0.062408	0.006409	0.12604	-0.043182	-0.18433	0.00473	0.11734	-0.20783	-0.38727	0.011749	0.017242	-0.046387	0.020905	0.14847	-0.041809	-0.085144	0.091705	0.14694	0.037842	-0.0383	0.070038	-0.042267	-0.6134	0.4187	-0.006409	-0.016632
16.136	0.014038	-0.009613	-0.083008	-0.005493	-0.036774	-0.001526	-0.062714	0.013428	0.10391	-0.02182	-0.10376	0.010834	0.12985	-0.30991	-0.27985	0.011444	0.020142	-0.10101	-0.11917	0.11139	-0.091553	-0.098267	-0.06134	0.018005	0.045013	-0.018921	-0.22903	0.012512	0.65643	0.10971	-0.011292	-0.012817
16.137	0.006714	-0.016174	-0.080566	0.011749	0.015411	-0.002747	-0.033569	0.013733	0.090942	0.009613	-0.051422	0.005951	0.085754	-0.16419	-0.018005	0.010986	-0.005493	-0.11063	0.074768	0.10147	-0.15228	-0.034027	-0.37842	-0.003357	0.098114	-0.014191	-0.1445	0.1648	0.93643	-0.12054	-0.008698	-0.00473
16.138	0.014038	-0.032196	-0.085297	-0.00885	0.014038	0.013428	-0.055695	0.013885	0.093842	0.002899	0.010681	0.003815	0.057373	-0.06485	0.13397	0.001221	0.011444	-0.099182	0.20569	0.16953	-0.12161	0.006866	-0.16785	-0.009613	0.044861	0.004578	-0.11108	0.014648	0.2887	-0.17456	-0.006561	-0.006256
16.139	0.001221	-0.027313	-0.10391	-0.019684	-0.012817	0.009766	-0.051422	0.014191	0.089569	0.005798	0.039368	0.001068	0.041809	-0.043182	0.19211	0.001221	0.026703	-0.12817	0.19012	0.12177	-0.020142	-0.030365	0.023193	-0.13962	0.035858	0.013885	-0.097809	-0.029602	-0.10117	-0.19882	-0.003357	-0.013885
16.14	0.007019	-0.026703	-0.13382	0.013733	-0.022278	-0.011444	-0.052338	0.011139	0.078125	0.016632	0.028992	0.007172	-0.010681	-0.023804	0.20325	0.003204	0.014038	-0.042419	0.37277	0.051117	0.075378	-0.13718	0.068054	0.016022	0.15305	-0.007019	0.10178	-0.020905	0.097198	-0.15656	-0.01236	-0.008698
16.141	0.015411	0.020294	-0.15976	0.01358	-0.012817	-0.030975	-0.059509	0.007172	0.078583	0.011444	-0.019684	0.003052	-0.00351	-0.005493	0.22751	0.005798	0.005493	-0.034332	0.33676	-0.022583	0.083618	-0.12634	0.14877	0.075226	0.13214	0.009155	0.25971	-0.010986	0.49622	-0.3241	-0.011444	0.004272
16.142	0.019684	0.038452	-0.13367	-0.01358	0.029449	-0.020752	-0.056305	0.00885	0.087128	-0.008392	-0.020599	0.000763	0.016327	0.014343	0.26642	0.002441	-0.004578	-0.049133	-0.026398	-0.063171	0.045624	0.024719	0.21072	0.019989	0.092163	0.01297	0.31403	-0.005035	0.27588	-0.22125	-0.003357	0.007629
16.143	0.018616	0.03891	-0.10681	0.004883	0.010681	0.005798	-0.066681	0.009308	0.086517	-0.014343	0.087891	0.003815	0.040894	-0.004272	0.14587	0.002747	-0.019226	-0.11673	-0.52841	-0.044556	0.04303	0.12878	0.2449	0.083313	0.026245	0.012512	0.51407	-0.008545	-2.8641	-0.15121	-0.00351	0.004425
16.144	0.007629	0.047607	-0.067139	0.003662	0.00351	0.010681	-0.053253	0.005798	0.078125	-0.035095	0.049286	0.001984	0.054474	0.02655	0.089722	-0.005035	-0.007935	-0.14206	-0.1651	-0.084991	0.019073	0.15533	0.10498	0.001068	-0.000763	0.007935	0.52887	0.001068	-4.5227	-0.16541	-0.005035	0.005035
16.145	0.013123	0.003967	-0.079651	0.008392	-0.020142	-0.028839	-0.061493	0.006104	0.072632	-0.033722	-0.037537	0.009003	0.058746	0.054016	-0.1474	0.001373	-0.0177	-0.080109	-0.20569	-0.087585	0.011749	0.18417	-0.16632	-0.17273	-0.022125	0.006866	0.037079	-0.008087	-0.14938	-0.19562	-0.010223	0.007172
16.146	0.006409	-0.007172	-0.046692	0.003815	-0.009003	-0.067291	-0.04837	0.007477	0.075836	-0.035858	0.033722	0.001068	0.067749	0.010834	-0.26337	-0.007019	-0.002747	-0.12955	-0.31174	-0.016479	-0.02243	0.24445	-0.086517	-0.19089	-0.1181	0.01297	-0.49652	-0.005341	2.5581	-0.097504	-0.009155	0.006104
16.147	0.006714	0.008392	0.010529	0.018921	0.007629	-0.036621	-0.063629	0.010834	0.070648	-0.019989	0.072327	0.00824	0.062866	-0.00412	-0.038147	0.002289	0.017853	-0.1709	-0.1033	0.030823	-0.022125	0.2861	0.015564	-0.058899	-0.10117	0.015106	-0.51056	-0.011597	1.713	-0.041504	-0.006104	0.001373
16.148	0.003204	0.046692	0.023499	0.008545	-0.005951	-0.00412	-0.084381	0.013733	0.071411	-0.015564	0.074768	0.001831	0.041504	0.005951	0.043945	-0.014648	-0.008545	-0.12024	-0.052032	0.065155	-0.012512	0.37506	-0.084839	0.30868	0.19608	0.022125	-0.29907	-0.006866	-0.79025	0.001526	-0.003662	-0.007935
16.149	0.005188	0.046539	0.031433	-0.005493	-0.045471	-0.030212	-0.0914	0.006104	0.075226	0.010681	0.003815	0.006866	0.029297	-0.0383	0.088196	-0.004425	-0.015717	-0.09552	0.36468	0.054016	-0.014038	0.32669	-0.1001	0.41641	0.53558	0.005341	-0.16983	-0.010223	-0.80643	0.19577	-0.006256	-0.015564
16.15	0.007629	0.045013	-0.009918	0.009308	-0.095825	-0.061951	-0.07309	0.002136	0.056763	0.00824	-0.028229	0.003052	0.034485	-0.021057	0.065155	-0.005798	0.002594	-0.049133	0.29663	0.059052	-0.037537	-0.005951	0.13321	0.30945	0.44846	-0.045624	-0.12512	-0.00824	-0.28702	0.088806	-0.006714	-0.014343
16.151	0.024261	0.072937	-0.030518	-0.009308	-0.010223	-0.067902	-0.088654	-0.001678	0.063324	-0.00824	-0.011597	0.016022	0.036316	0.02121	0.026703	-0.005035	-0.005341	0.018463	0.14374	0.043335	-0.009155	-0.046997	0.26947	0.17197	0.44922	-0.13641	-0.24139	-0.010071	2.6311	0.024872	-0.011444	-0.015564
16.152	0.027466	0.048218	-0.044403	0.006104	-0.005646	-0.056152	-0.057831	0.000916	0.056915	-0.03479	0.006409	0.004272	0.010681	0.030365	0.016327	-0.005798	0.016937	-0.1091	-0.096893	0.024261	-0.009918	-0.058289	0.44678	0.041046	0.20523	-0.20248	0.006409	-0.013885	1.2186	-0.040283	-0.00824	-0.018158
16.153	0.031281	0.042877	-0.050812	0.001526	0.053253	-0.04303	-0.062103	-0.00412	0.05127	-0.015869	0.043945	0.026093	-0.016327	-0.018311	0.019684	-0.011749	0.015869	-0.099335	-0.17319	0.052948	-0.018463	-0.056763	0.39612	-0.19302	-0.064392	-0.15976	0.14755	-0.004425	-0.92438	0.006866	-0.007782	-0.021362
16.154	0.015259	0.062561	-0.050812	0.005035	0.054626	-0.024414	-0.054321	0.009766	0.057678	-0.014496	0.048828	0.00061	0.010529	-0.011444	0.076294	-0.014038	0.012665	-0.035858	0.24628	0.002899	-0.029755	-0.097198	0.29541	-0.26123	-0.40146	-0.10178	0.018921	-0.006409	0.071411	0.09964	-0.006104	-0.01709
